<svg width="45" height="24" viewBox="0 0 45 24" fill="none" xmlns="http://www.w3.org/2000/svg">
<path d="M2 10.5C1.17157 10.5 0.5 11.1716 0.5 12C0.5 12.8284 1.17157 13.5 2 13.5L2 12L2 10.5ZM44.0607 13.0607C44.6464 12.4749 44.6464 11.5251 44.0607 10.9393L34.5147 1.3934C33.9289 0.807612 32.9792 0.807612 32.3934 1.3934C31.8076 1.97918 31.8076 2.92893 32.3934 3.51472L40.8787 12L32.3934 20.4853C31.8076 21.0711 31.8076 22.0208 32.3934 22.6066C32.9792 23.1924 33.9289 23.1924 34.5147 22.6066L44.0607 13.0607ZM2 12L2 13.5L43 13.5L43 12L43 10.5L2 10.5L2 12Z" fill="#A8DADC"/>
</svg>
