<svg width="400" height="400" viewBox="0 0 400 400" fill="none" xmlns="http://www.w3.org/2000/svg">
<g clip-path="url(#clip0_1258_16)">
<path d="M300 175V125L270 115C267.5 107.5 265 97.5 260 90L275 60L237.5 27.5L210 40C202.5 35 195 32.5 185 30L175 0H125L115 30C107.5 32.5 97.5 35 90 40L62.5 27.5L27.5 62.5L42.5 92.5C37.5 100 35 107.5 32.5 117.5L0 125V175L30 185C32.5 192.5 35 202.5 40 210L27.5 237.5L62.5 272.5L92.5 257.5C100 262.5 107.5 265 117.5 267.5L125 300H175L185 270C192.5 267.5 202.5 265 210 260L240 275L275 240L260 210C265 202.5 267.5 195 270 185L300 175ZM75 150C75 107.5 107.5 75 150 75C192.5 75 225 107.5 225 150C225 192.5 192.5 225 150 225C107.5 225 75 192.5 75 150Z" fill="#A8DADC"/>
<path d="M187.5 150C187.5 170.7 170.7 187.5 150 187.5C129.3 187.5 112.5 170.7 112.5 150C112.5 129.3 129.3 112.5 150 112.5C170.7 112.5 187.5 129.3 187.5 150Z" fill="#A8DADC"/>
<path d="M400 75V50H385C385 45 382.5 40 380 37.5L390 27.5L372.5 10L362.5 20C357.5 17.5 355 15 350 15V0H325V15C320 15 315 17.5 312.5 20L302.5 10L285 27.5L295 37.5C292.5 42.5 290 45 290 50H275V75H290C290 80 292.5 85 295 87.5L285 97.5L302.5 115L312.5 105C317.5 107.5 320 110 325 110V125H350V110C355 110 360 107.5 362.5 105L372.5 115L390 97.5L380 87.5C382.5 82.5 385 80 385 75H400ZM337.5 87.5C322.5 87.5 312.5 77.5 312.5 62.5C312.5 47.5 322.5 37.5 337.5 37.5C352.5 37.5 362.5 47.5 362.5 62.5C362.5 77.5 352.5 87.5 337.5 87.5Z" fill="#A8DADC"/>
<path d="M385 295C382.5 287.5 380 280 375 272.5L382.5 257.5L365 240L352.5 250C345 245 337.5 242.5 330 240L325 225H300L295 240C287.5 242.5 280 245 272.5 250L257.5 242.5L240 260L247.5 275C242.5 282.5 240 290 237.5 297.5L225 300V325L240 330C242.5 337.5 245 345 250 352.5L242.5 367.5L260 385L275 377.5C282.5 382.5 290 385 297.5 387.5L300 400H325L330 385C337.5 382.5 345 380 352.5 375L367.5 382.5L385 365L375 352.5C380 345 382.5 337.5 385 330L400 325V300L385 295ZM312.5 350C292.5 350 275 332.5 275 312.5C275 292.5 292.5 275 312.5 275C332.5 275 350 292.5 350 312.5C350 332.5 332.5 350 312.5 350Z" fill="#A8DADC"/>
</g>
<defs>
<clipPath id="clip0_1258_16">
<rect width="400" height="400" fill="white"/>
</clipPath>
</defs>
</svg>
