<svg width="87" height="87" viewBox="0 0 87 87" fill="none" xmlns="http://www.w3.org/2000/svg">
<path d="M37.7217 17.5071C39.5602 11.9368 47.4398 11.9368 49.2783 17.5071V17.5071C50.4434 21.0372 54.4738 22.7067 57.7939 21.0344V21.0344C63.0327 18.3956 68.6044 23.9673 65.9656 29.2061V29.2061C64.2933 32.5262 65.9628 36.5566 69.4929 37.7217V37.7217C75.0632 39.5602 75.0632 47.4398 69.4929 49.2783V49.2783C65.9628 50.4434 64.2933 54.4738 65.9656 57.7939V57.7939C68.6044 63.0327 63.0327 68.6044 57.7939 65.9656V65.9656C54.4738 64.2933 50.4434 65.9628 49.2783 69.4929V69.4929C47.4398 75.0632 39.5602 75.0632 37.7217 69.4929V69.4929C36.5566 65.9628 32.5262 64.2933 29.2061 65.9656V65.9656C23.9673 68.6044 18.3956 63.0327 21.0344 57.7939V57.7939C22.7067 54.4738 21.0372 50.4434 17.5071 49.2783V49.2783C11.9368 47.4398 11.9368 39.5602 17.5071 37.7217V37.7217C21.0372 36.5566 22.7067 32.5262 21.0344 29.2061V29.2061C18.3956 23.9673 23.9673 18.3956 29.2061 21.0344V21.0344C32.5262 22.7067 36.5566 21.0372 37.7217 17.5071V17.5071Z" fill="#D91722"/>
<path d="M41.1271 32.5H46.9171L45.9871 47.32H42.0271L41.1271 32.5ZM44.0071 55.3C43.0671 55.3 42.3071 55.03 41.7271 54.49C41.1471 53.93 40.8571 53.21 40.8571 52.33C40.8571 51.45 41.1471 50.74 41.7271 50.2C42.3071 49.66 43.0671 49.39 44.0071 49.39C44.9471 49.39 45.7071 49.66 46.2871 50.2C46.8671 50.74 47.1571 51.45 47.1571 52.33C47.1571 53.21 46.8671 53.93 46.2871 54.49C45.7071 55.03 44.9471 55.3 44.0071 55.3Z" fill="#FFFFF0"/>
</svg>
