<svg width="50" height="50" viewBox="0 0 50 50" fill="none" xmlns="http://www.w3.org/2000/svg">
<path d="M25 0C38.8071 0 50 11.1929 50 25C50 38.8071 38.8071 50 25 50C11.1929 50 0 38.8071 0 25C0 11.1929 11.1929 0 25 0ZM31.8262 12.8281C31.4841 11.165 29.31 11.1215 28.9014 12.7695C27.3637 18.9752 25.8248 25.181 24.2871 31.3867C22.9347 27.1792 21.5829 22.9712 20.2305 18.7637C19.7305 17.2092 17.7816 17.2542 17.3545 18.8301C16.6477 21.4422 15.9402 24.0549 15.2334 26.667C13.9782 26.7009 12.7229 26.7891 11.4678 26.9336C10.0262 27.0996 8.58418 27.3395 7.14258 27.6514C7.02366 27.6774 6.90933 27.7344 6.8252 27.8252C6.74122 27.9159 6.69346 28.0322 6.69336 28.1514C6.69348 28.2704 6.74137 28.3859 6.8252 28.4766C6.90935 28.5675 7.02357 28.6253 7.14258 28.6514C8.58416 28.9633 10.0262 29.2022 11.4678 29.3682C13.1073 29.5569 14.7472 29.6514 16.3867 29.6514C17.0206 29.6511 17.6683 29.1548 17.834 28.543C18.1979 27.1982 18.5609 25.8526 18.9248 24.5078C20.2984 28.7813 21.6733 33.0547 23.0469 37.3281C23.5503 38.8942 25.5348 38.827 25.9307 37.2305C27.3607 31.4593 28.7897 25.6872 30.2197 19.916C30.826 22.8665 31.4328 25.8171 32.0391 28.7676C32.1817 29.4619 32.8502 29.9887 33.5586 29.9648C35.234 29.9084 36.9063 29.7559 38.5752 29.5068C40.0104 29.2926 41.4436 29.007 42.874 28.6504C42.992 28.6206 43.1045 28.5603 43.1855 28.4668C43.2666 28.3731 43.3097 28.2551 43.3057 28.1357C43.3015 28.0164 43.2503 27.9024 43.1631 27.8145C43.0758 27.7265 42.9597 27.6731 42.8398 27.6514C41.3887 27.3919 39.9395 27.203 38.4932 27.0859C37.2355 26.9842 35.9796 26.9365 34.7256 26.9424C33.7601 22.2437 32.7956 17.5444 31.8301 12.8457C31.8289 12.8401 31.8273 12.8338 31.8262 12.8281Z" fill="#A8DADC"/>
</svg>
