<svg width="387" height="93" viewBox="0 0 387 93" fill="none" xmlns="http://www.w3.org/2000/svg">
<path fill-rule="evenodd" clip-rule="evenodd" d="M37.4583 31.4991L28.7775 30.4054L22.0105 36.0787C18.7589 31.7221 14.8755 29.9788 10.4589 30.8155C4.62258 31.9213 1.51336 36.9673 1.23127 40.5217C0.889512 44.8279 0.957865 47.7671 1.23127 51.7999C1.46761 55.2859 2.87174 60.549 4.17045 62.7363C5.05903 59.4554 6.22103 57.8149 8.54503 55.2175C7.43242 49.6089 7.27605 46.389 7.79315 40.5217C8.31363 36.1471 16.4476 35.5319 16.8841 40.5217C17.1412 43.4608 16.8367 45.2002 16.474 48.2455L37.4583 31.4991Z" fill="#1A2344" stroke="#1A2344"/>
<path fill-rule="evenodd" clip-rule="evenodd" d="M50.7844 29.4693L45.4195 22.5577L36.6229 21.7844C37.4043 16.4045 35.891 12.4258 32.1763 9.89449C27.2675 6.54948 21.5009 7.91898 18.7882 10.2328C15.5015 13.0361 13.4716 15.1628 10.8132 18.2077C8.51539 20.8398 5.78664 25.5543 5.15831 28.0193C8.10661 26.3276 10.0883 25.9893 13.5682 25.796C16.7474 21.0434 18.9136 18.6559 23.4281 14.8728C26.8894 12.1475 33.076 17.4641 29.8564 21.301C27.9598 23.5611 26.5146 24.5758 24.1048 26.4726L50.7844 29.4693Z" fill="#1A2344" stroke="#1A2344"/>
<path fill-rule="evenodd" clip-rule="evenodd" d="M61.642 37.4584L62.7357 28.7776L57.0624 22.0107C61.419 18.759 63.1624 14.8756 62.3256 10.459C61.2198 4.6227 56.1738 1.51348 52.6195 1.2314C48.3132 0.889634 45.3741 0.957987 41.3412 1.2314C37.8552 1.46773 32.5921 2.87186 30.4048 4.17057C33.6857 5.05915 35.3262 6.22115 37.9236 8.54515C43.5322 7.43254 46.7521 7.27617 52.6195 7.79327C56.994 8.31376 57.6092 16.4477 52.6195 16.8842C49.6803 17.1413 47.9409 16.8368 44.8956 16.4741L61.642 37.4584Z" fill="#E4010B" stroke="#E4010B"/>
<path fill-rule="evenodd" clip-rule="evenodd" d="M63.6709 50.7841L70.5825 45.4191L71.3558 36.6226C76.7357 37.4039 80.7143 35.8907 83.2457 32.176C86.5907 27.2672 85.2212 21.5006 82.9073 18.7878C80.104 15.5012 77.9774 13.4712 74.9324 10.8129C72.3003 8.51502 67.5858 5.78627 65.1209 5.15795C66.8125 8.10624 67.1508 10.0879 67.3442 13.5678C72.0968 16.747 74.4842 18.9133 78.2674 23.4277C80.9926 26.8891 75.676 33.0757 71.8391 29.856C69.579 27.9595 68.5644 26.5142 66.6675 24.1044L63.6709 50.7841Z" fill="#1A2344" stroke="#1A2344"/>
<path fill-rule="evenodd" clip-rule="evenodd" d="M55.6822 61.6415L64.363 62.7352L71.13 57.0619C74.3816 61.4185 78.265 63.1619 82.6816 62.3251C88.5179 61.2193 91.6271 56.1733 91.9092 52.619C92.251 48.3127 92.1826 45.3736 91.9092 41.3408C91.6729 37.8548 90.2688 32.5916 88.9701 30.4043C88.0815 33.6852 86.9195 35.3257 84.5955 37.9231C85.7081 43.5317 85.8645 46.7516 85.3474 52.619C84.8269 56.9936 76.6929 57.6087 76.2564 52.619C75.9993 49.6798 76.3038 47.9404 76.6665 44.8951L55.6822 61.6415Z" fill="#1A2344" stroke="#1A2344"/>
<path fill-rule="evenodd" clip-rule="evenodd" d="M42.3559 63.6704L47.7209 70.582L56.5174 71.3553C55.7361 76.7352 57.2493 80.7139 60.9641 83.2452C65.8729 86.5902 71.6395 85.2207 74.3522 82.9068C77.6389 80.1035 79.6688 77.9769 82.3271 74.9319C84.625 72.2998 87.3537 67.5853 87.9821 65.1204C85.0338 66.812 83.0521 67.1504 79.5722 67.3437C76.393 72.0963 74.2268 74.4837 69.7123 78.2669C66.2509 80.9921 60.0644 75.6755 63.284 71.8386C65.1805 69.5785 66.6258 68.5639 69.0356 66.667L42.3559 63.6704Z" fill="#1A2344" stroke="#1A2344"/>
<path fill-rule="evenodd" clip-rule="evenodd" d="M31.4985 55.6822L30.4048 64.363L36.0781 71.13C31.7215 74.3816 29.9782 78.265 30.8149 82.6816C31.9207 88.5179 36.9667 91.6271 40.521 91.9092C44.8273 92.251 47.7664 92.1826 51.7993 91.9092C55.2853 91.6729 60.5484 90.2688 62.7357 88.9701C59.4548 88.0815 57.8143 86.9195 55.2169 84.5955C49.6083 85.7081 46.3884 85.8645 40.521 85.3474C36.1465 84.8269 35.5313 76.6929 40.521 76.2564C43.4602 75.9993 45.1996 76.3038 48.2449 76.6665L31.4985 55.6822Z" fill="#1A2344" stroke="#1A2344"/>
<path fill-rule="evenodd" clip-rule="evenodd" d="M29.4697 42.3556L22.5582 47.7205L21.7848 56.5171C16.405 55.7357 12.4263 57.249 9.89497 60.9637C6.54997 65.8725 7.91947 71.6391 10.2333 74.3519C13.0366 77.6385 15.1632 79.6685 18.2082 82.3268C20.8403 84.6246 25.5548 87.3534 28.0198 87.9817C26.3281 85.0334 25.9898 83.0518 25.7965 79.5718C21.0438 76.3927 18.6564 74.2264 14.8732 69.7119C12.148 66.2506 17.4646 60.064 21.3015 63.2837C23.5616 65.1802 24.5763 66.6254 26.4731 69.0353L29.4697 42.3556Z" fill="#1A2344" stroke="#1A2344"/>
<path d="M377.753 27.7939H387L380.558 64.1577H372.766L341.961 37.4563L337.234 64.1577H327.987L334.429 27.7939H342.584L373.078 54.1836L377.753 27.7939Z" fill="#1A2344"/>
<path d="M314.852 64.1577L311.632 57.1447H283.008L277.242 64.1577H265.969L296.774 27.7939H307.424L325.398 64.1577H314.852ZM288.93 49.8719H308.255L301.294 34.8069L288.93 49.8719Z" fill="#1A2344"/>
<path d="M231.856 56.2615H266.973L265.57 64.1577H220.895L227.336 27.7939H236.895L231.856 56.2615Z" fill="#1A2344"/>
<path d="M207.76 64.1577L204.54 57.1447H175.916L170.15 64.1577H158.877L189.682 27.7939H200.332L218.306 64.1577H207.76ZM181.838 49.8719H201.163L194.202 34.8069L181.838 49.8719Z" fill="#1A2344"/>
<path d="M154.381 27.7939C160.684 27.7939 163.299 30.9801 162.225 37.3524L161.342 42.3394C160.788 45.5256 159.766 47.742 158.277 48.9888C156.822 50.2356 154.502 50.8589 151.316 50.8589L149.238 51.1706L158.641 64.1577H147.732L138.796 51.4823H118.796L116.563 64.1577H107.004L113.446 27.7939H154.381ZM152.511 38.2355C152.753 36.8502 152.632 35.8805 152.147 35.3264C151.697 34.7377 150.779 34.4433 149.394 34.4433H121.809L119.939 45.0407H147.887C149.238 45.0407 150.173 44.7983 150.693 44.3135C151.247 43.8286 151.662 42.9109 151.939 41.5602L152.511 38.2355Z" fill="#1A2344"/>
</svg>
