<svg width="68" height="68" viewBox="0 0 68 68" fill="none" xmlns="http://www.w3.org/2000/svg">
<path fill-rule="evenodd" clip-rule="evenodd" d="M27.5513 23.2111L21.2294 22.4146L16.3013 26.5462C13.9332 23.3735 11.1051 22.1039 7.88865 22.7133C3.63828 23.5186 1.37395 27.1934 1.16852 29.7819C0.919625 32.9179 0.969404 35.0584 1.16852 37.9954C1.34063 40.5341 2.36321 44.367 3.309 45.96C3.95613 43.5706 4.80237 42.3759 6.49485 40.4843C5.68458 36.3998 5.5707 34.0548 5.94728 29.7819C6.32633 26.596 12.25 26.148 12.5679 29.7819C12.7551 31.9223 12.5333 33.1891 12.2692 35.4069L27.5513 23.2111Z" fill="#1D3557" stroke="#1D3557"/>
<path fill-rule="evenodd" clip-rule="evenodd" d="M37.256 21.7336L33.3489 16.7002L26.9427 16.137C27.5117 12.219 26.4097 9.3215 23.7044 7.47804C20.1295 5.042 15.9299 6.03935 13.9543 7.72443C11.5608 9.76597 10.0824 11.3147 8.14649 13.5323C6.47305 15.4491 4.48581 18.8825 4.02822 20.6776C6.17535 19.4457 7.61851 19.1993 10.1528 19.0585C12.4681 15.5973 14.0457 13.8587 17.3334 11.1035C19.8542 9.11883 24.3596 12.9907 22.0149 15.785C20.6337 17.4309 19.5812 18.1699 17.8262 19.5513L37.256 21.7336Z" fill="#1D3557" stroke="#1D3557"/>
<path fill-rule="evenodd" clip-rule="evenodd" d="M45.163 27.5513L45.9594 21.2294L41.8278 16.3013C45.0006 13.9332 46.2702 11.1051 45.6608 7.88865C44.8555 3.63828 41.1807 1.37395 38.5922 1.16852C35.4561 0.919625 33.3156 0.969404 30.3787 1.16852C27.84 1.34063 24.007 2.36321 22.4141 3.309C24.8034 3.95613 25.9981 4.80237 27.8897 6.49485C31.9743 5.68458 34.3192 5.5707 38.5922 5.94728C41.778 6.32633 42.226 12.25 38.5922 12.5679C36.4517 12.7551 35.1849 12.5333 32.9672 12.2692L45.163 27.5513Z" fill="#D91722" stroke="#D91722"/>
<path fill-rule="evenodd" clip-rule="evenodd" d="M46.6404 37.256L51.6739 33.3489L52.237 26.9427C56.155 27.5117 59.0525 26.4097 60.896 23.7044C63.332 20.1295 62.3347 15.9299 60.6496 13.9543C58.6081 11.5608 57.0593 10.0824 54.8418 8.14649C52.9249 6.47305 49.4915 4.48581 47.6964 4.02822C48.9284 6.17535 49.1747 7.61851 49.3155 10.1528C52.7767 12.4681 54.5153 14.0457 57.2705 17.3334C59.2552 19.8542 55.3833 24.3596 52.589 22.0149C50.9431 20.6337 50.2042 19.5812 48.8228 17.8262L46.6404 37.256Z" fill="#1D3557" stroke="#1D3557"/>
<path fill-rule="evenodd" clip-rule="evenodd" d="M40.8227 45.1635L47.1447 45.9599L52.0728 41.8283C54.4408 45.0011 57.2689 46.2706 60.4854 45.6612C64.7357 44.856 67.0001 41.1812 67.2055 38.5927C67.4544 35.4566 67.4046 33.3161 67.2055 30.3792C67.0334 27.8404 66.0108 24.0075 65.065 22.4146C64.4179 24.8039 63.5717 25.9986 61.8792 27.8902C62.6894 31.9748 62.8033 34.3197 62.4267 38.5927C62.0477 41.7785 56.124 42.2265 55.8062 38.5927C55.6189 36.4522 55.8407 35.1854 56.1048 32.9677L40.8227 45.1635Z" fill="#1D3557" stroke="#1D3557"/>
<path fill-rule="evenodd" clip-rule="evenodd" d="M31.118 46.6409L35.0251 51.6744L41.4313 52.2375C40.8623 56.1555 41.9643 59.053 44.6696 60.8965C48.2445 63.3325 52.4441 62.3352 54.4197 60.6501C56.8132 58.6085 58.2916 57.0598 60.2275 54.8423C61.901 52.9254 63.8882 49.492 64.3458 47.6969C62.1987 48.9288 60.7555 49.1752 58.2212 49.316C55.9059 52.7772 54.3283 54.5158 51.0406 57.271C48.5199 59.2557 44.0144 55.3838 46.3592 52.5895C47.7403 50.9436 48.7929 50.2047 50.5478 48.8232L31.118 46.6409Z" fill="#1D3557" stroke="#1D3557"/>
<path fill-rule="evenodd" clip-rule="evenodd" d="M23.2111 40.8232L22.4146 47.1451L26.5462 52.0732C23.3735 54.4413 22.1039 57.2694 22.7133 60.4859C23.5186 64.7362 27.1934 67.0006 29.7819 67.206C32.9179 67.4549 35.0584 67.4051 37.9954 67.206C40.5341 67.0339 44.367 66.0113 45.96 65.0655C43.5706 64.4184 42.3759 63.5721 40.4843 61.8797C36.3998 62.6899 34.0548 62.8038 29.7819 62.4272C26.596 62.0482 26.148 56.1245 29.7819 55.8067C31.9223 55.6194 33.1891 55.8412 35.4069 56.1053L23.2111 40.8232Z" fill="#1D3557" stroke="#1D3557"/>
<path fill-rule="evenodd" clip-rule="evenodd" d="M21.7336 31.118L16.7002 35.0251L16.137 41.4313C12.219 40.8623 9.3215 41.9643 7.47804 44.6696C5.042 48.2445 6.03935 52.4441 7.72443 54.4197C9.76597 56.8132 11.3147 58.2916 13.5323 60.2275C15.4491 61.901 18.8825 63.8882 20.6776 64.3458C19.4457 62.1987 19.1993 60.7555 19.0585 58.2212C15.5973 55.9059 13.8587 54.3283 11.1035 51.0406C9.11883 48.5199 12.9907 44.0144 15.785 46.3592C17.4309 47.7403 18.1699 48.7929 19.5513 50.5478L21.7336 31.118Z" fill="#1D3557" stroke="#1D3557"/>
</svg>
