<svg width="1961" height="256" viewBox="0 0 1961 256" fill="none" xmlns="http://www.w3.org/2000/svg">
<path d="M1895.92 0.608643H1960.66L1915.56 255.217H1861L1645.31 68.2617L1612.21 255.217H1547.47L1592.57 0.608643H1649.68L1863.19 185.382L1895.92 0.608643Z" fill="#1A2344"/>
<path d="M1455.51 255.217L1432.96 206.114H1232.54L1192.17 255.217H1113.24L1328.93 0.608643H1403.5L1529.35 255.217H1455.51ZM1274.01 155.192H1409.32L1360.58 49.7117L1274.01 155.192Z" fill="#1A2344"/>
<path d="M874.385 199.931H1120.26L1110.44 255.217H797.639L842.741 0.608643H909.666L874.385 199.931Z" fill="#1A2344"/>
<path d="M705.679 255.217L683.128 206.114H482.715L442.341 255.217H363.413L579.102 0.608643H653.666L779.515 255.217H705.679ZM524.18 155.192H659.486L610.746 49.7117L524.18 155.192Z" fill="#1A2344"/>
<path d="M331.931 0.608582C376.063 0.608582 394.37 22.9171 386.853 67.5342L380.67 102.452C376.79 124.76 369.637 140.279 359.21 149.009C349.026 157.738 332.779 162.103 310.471 162.103L295.922 164.285L361.756 255.217H285.374L222.813 166.468H82.7783L67.138 255.217H0.212402L45.3144 0.608582H331.931ZM318.837 73.7175C320.534 64.0182 319.685 57.2286 316.29 53.3489C313.138 49.2266 306.712 47.1655 297.013 47.1655H103.874L90.7802 121.366H286.465C295.922 121.366 302.469 119.668 306.106 116.273C309.986 112.879 312.896 106.453 314.836 96.996L318.837 73.7175Z" fill="#1A2344"/>
</svg>
