<svg width="45" height="30" viewBox="0 0 45 30" fill="none" xmlns="http://www.w3.org/2000/svg">
<path d="M2 13C0.89543 13 -1.8317e-09 13.8954 0 15C1.8317e-09 16.1046 0.895431 17 2 17L2 15L2 13ZM44.4142 16.4142C45.1953 15.6332 45.1953 14.3668 44.4142 13.5858L31.6863 0.857864C30.9052 0.0768157 29.6389 0.0768157 28.8579 0.857864C28.0768 1.63891 28.0768 2.90524 28.8579 3.68629L40.1716 15L28.8579 26.3137C28.0768 27.0948 28.0768 28.3611 28.8579 29.1421C29.6389 29.9232 30.9052 29.9232 31.6863 29.1421L44.4142 16.4142ZM2 15L2 17L43 17L43 15L43 13L2 13L2 15Z" fill="#1A2344"/>
</svg>
