<svg width="635" height="150" viewBox="0 0 635 150" fill="none" xmlns="http://www.w3.org/2000/svg">
<path fill-rule="evenodd" clip-rule="evenodd" d="M60.6242 50.5248L46.3597 48.7488L35.2401 57.9615C29.8969 50.8869 23.5156 48.056 16.2582 49.4148C6.66776 51.2104 1.55862 59.4045 1.09508 65.1763C0.533488 72.169 0.645807 76.9418 1.09508 83.4906C1.48343 89.1514 3.79074 97.6981 5.9248 101.25C7.38495 95.9222 9.29437 93.2583 13.1132 89.0404C11.285 79.9328 11.028 74.704 11.8777 65.1763C12.733 58.0725 26.099 57.0735 26.8162 65.1763C27.2386 69.9491 26.7383 72.7737 26.1422 77.7188L60.6242 50.5248Z" fill="white" stroke="white"/>
<path fill-rule="evenodd" clip-rule="evenodd" d="M82.5193 47.2305L73.7035 36.007L59.2488 34.7512C60.5327 26.015 58.0461 19.5542 51.942 15.4437C43.8757 10.0118 34.3999 12.2357 29.9422 15.9931C24.5416 20.5453 21.2058 23.9986 16.8377 28.9433C13.0618 33.2174 8.57781 40.8732 7.54532 44.876C12.39 42.1289 15.6463 41.5795 21.3647 41.2656C26.5887 33.548 30.1484 29.6711 37.5667 23.5277C43.2545 19.1023 53.4204 27.7357 48.1298 33.9664C45.0134 37.6365 42.6385 39.2841 38.6786 42.3644L82.5193 47.2305Z" fill="white" stroke="white"/>
<path fill-rule="evenodd" clip-rule="evenodd" d="M100.363 60.2037L102.16 46.1072L92.8377 35.1186C99.9966 29.8383 102.861 23.5322 101.486 16.3602C99.6692 6.8828 91.3775 1.83383 85.5369 1.37576C78.4608 0.82078 73.6311 0.931777 67.0043 1.37576C61.276 1.75954 52.6274 4.03966 49.0332 6.14859C54.4245 7.59154 57.1202 9.47847 61.3883 13.2523C70.6045 11.4456 75.8956 11.1917 85.5369 12.0314C92.7253 12.8766 93.7362 26.0851 85.5369 26.7939C80.7072 27.2113 77.8489 26.7169 72.8449 26.1279L100.363 60.2037Z" fill="#D91722" stroke="#D91722"/>
<path fill-rule="evenodd" clip-rule="evenodd" d="M103.697 81.8428L115.054 73.1309L116.325 58.8464C125.165 60.1152 131.703 57.6579 135.863 51.6257C141.359 43.6544 139.109 34.2902 135.307 29.885C130.7 24.548 127.206 21.2515 122.202 16.9348C117.877 13.2034 110.13 8.77225 106.08 7.75193C108.859 12.5396 109.415 15.7575 109.733 21.4085C117.543 26.571 121.466 30.0888 127.682 37.4197C132.161 43.0404 123.424 53.0867 117.119 47.8583C113.405 44.7786 111.738 42.4317 108.621 38.5185L103.697 81.8428Z" fill="white" stroke="white"/>
<path fill-rule="evenodd" clip-rule="evenodd" d="M90.5672 99.4743L104.832 101.25L115.951 92.0375C121.295 99.1121 127.676 101.943 134.933 100.584C144.524 98.7886 149.633 90.5946 150.096 84.8228C150.658 77.83 150.546 73.0572 150.096 66.5084C149.708 60.8476 147.401 52.3009 145.267 48.749C143.806 54.0768 141.897 56.7407 138.078 60.9586C139.906 70.0662 140.163 75.295 139.314 84.8228C138.458 91.9265 125.092 92.9255 124.375 84.8228C123.953 80.0499 124.453 77.2253 125.049 72.2802L90.5672 99.4743Z" fill="white" stroke="white"/>
<path fill-rule="evenodd" clip-rule="evenodd" d="M68.6701 102.768L77.4859 113.991L91.9406 115.247C90.6567 123.983 93.1433 130.444 99.2474 134.554C107.314 139.986 116.79 137.762 121.247 134.005C126.648 129.453 129.984 125.999 134.352 121.055C138.128 116.781 142.612 109.125 143.644 105.122C138.799 107.869 135.543 108.419 129.825 108.732C124.601 116.45 121.041 120.327 113.623 126.47C107.935 130.896 97.769 122.262 103.06 116.032C106.176 112.362 108.551 110.714 112.511 107.634L68.6701 102.768Z" fill="white" stroke="white"/>
<path fill-rule="evenodd" clip-rule="evenodd" d="M50.8303 89.7963L49.0332 103.893L58.3557 114.881C51.1968 120.162 48.3321 126.468 49.7071 133.64C51.5242 143.117 59.8158 148.166 65.6564 148.624C72.7325 149.179 77.5623 149.068 84.1891 148.624C89.9174 148.24 98.5659 145.96 102.16 143.851C96.7688 142.408 94.0732 140.522 89.8051 136.748C80.5889 138.554 75.2978 138.808 65.6564 137.969C58.468 137.123 57.4571 123.915 65.6564 123.206C70.4862 122.789 73.3444 123.283 78.3485 123.872L50.8303 89.7963Z" fill="white" stroke="white"/>
<path fill-rule="evenodd" clip-rule="evenodd" d="M47.4983 68.1552L36.141 76.8672L34.8702 91.1516C26.0299 89.8828 19.492 92.3402 15.3325 98.3724C9.83592 106.344 12.0863 115.708 15.8885 120.113C20.4949 125.45 23.9895 128.746 28.993 133.063C33.3182 136.795 41.0651 141.226 45.1156 142.246C42.3359 137.458 41.7799 134.241 41.4622 128.59C33.6526 123.427 29.7296 119.909 23.513 112.578C19.0347 106.958 27.7711 96.9114 34.076 102.14C37.7899 105.219 39.4572 107.566 42.5741 111.48L47.4983 68.1552Z" fill="white" stroke="white"/>
<path d="M619.807 44.5107H635.001L624.416 103.561H611.612L560.992 60.2012L553.224 103.561H538.029L548.614 44.5107H562.016L612.124 87.3641L619.807 44.5107Z" fill="#D91722"/>
<path d="M516.445 103.561L511.153 92.1725H464.118L454.643 103.561H436.119L486.739 44.5107H504.238L533.774 103.561H516.445ZM473.849 80.3625H505.604L494.166 55.8989L473.849 80.3625Z" fill="#D91722"/>
<path d="M380.064 90.7384H437.769L435.465 103.561H362.053L372.638 44.5107H388.344L380.064 90.7384Z" fill="#D91722"/>
<path d="M340.467 103.561L335.174 92.1725H288.14L278.664 103.561H260.141L310.761 44.5107H328.26L357.795 103.561H340.467ZM297.871 80.3625H329.626L318.187 55.8989L297.871 80.3625Z" fill="#D91722"/>
<path d="M252.755 44.5107C263.112 44.5107 267.409 49.6846 265.645 60.0324L264.194 68.1307C263.283 73.3046 261.604 76.9039 259.157 78.9284C256.767 80.953 252.954 81.9653 247.719 81.9653L244.304 82.4714L259.755 103.561H241.829L227.146 82.9776H194.282L190.611 103.561H174.904L185.489 44.5107H252.755ZM249.682 61.4665C250.08 59.217 249.881 57.6423 249.084 56.7425C248.345 55.7865 246.836 55.3084 244.56 55.3084H199.233L196.16 72.5173H242.085C244.304 72.5173 245.841 72.1236 246.694 71.3363C247.605 70.549 248.288 69.0586 248.743 66.8654L249.682 61.4665Z" fill="#D91722"/>
</svg>
