<svg width="93" height="93" viewBox="0 0 93 93" fill="none" xmlns="http://www.w3.org/2000/svg">
<rect width="93" height="93" fill="white"/>
<path fill-rule="evenodd" clip-rule="evenodd" d="M37.402 31.4522L28.7346 30.3602L21.9782 36.0248C18.7315 31.6749 14.8542 29.9342 10.4444 30.7697C4.6171 31.8738 1.51269 36.912 1.23104 40.4608C0.889805 44.7604 0.958052 47.695 1.23104 51.7216C1.46701 55.2022 2.86897 60.4572 4.16566 62.6411C5.05287 59.3653 6.21307 57.7273 8.53347 55.1339C7.42259 49.534 7.26646 46.3191 7.78276 40.4608C8.30244 36.093 16.4238 35.4788 16.8596 40.4608C17.1163 43.3954 16.8123 45.1322 16.4501 48.1727L37.402 31.4522Z" fill="#1A2344" stroke="#1A2344"/>
<path fill-rule="evenodd" clip-rule="evenodd" d="M50.7081 29.425L45.3514 22.5241L36.5685 21.752C37.3486 16.3804 35.8377 12.4079 32.1287 9.88049C27.2275 6.54066 21.4698 7.90804 18.7613 10.2183C15.4797 13.0173 13.4529 15.1406 10.7987 18.1809C8.50441 20.8089 5.77988 25.5161 5.15252 27.9772C8.09626 26.2882 10.0748 25.9504 13.5494 25.7574C16.7236 21.0121 18.8866 18.6284 23.394 14.8511C26.85 12.13 33.027 17.4384 29.8123 21.2694C27.9188 23.526 26.4757 24.539 24.0696 26.433L50.7081 29.425Z" fill="#1A2344" stroke="#1A2344"/>
<path fill-rule="evenodd" clip-rule="evenodd" d="M61.5483 37.402L62.6402 28.7346L56.9757 21.9782C61.3256 18.7315 63.0663 14.8542 62.2308 10.4444C61.1267 4.6171 56.0885 1.51269 52.5397 1.23104C48.2401 0.889805 45.3055 0.958052 41.2789 1.23104C37.7983 1.46701 32.5433 2.86897 30.3594 4.16566C33.6352 5.05287 35.2732 6.21307 37.8666 8.53347C43.4665 7.42259 46.6814 7.26646 52.5397 7.78276C56.9075 8.30244 57.5217 16.4238 52.5397 16.8596C49.6051 17.1163 47.8683 16.8123 44.8278 16.4501L61.5483 37.402Z" fill="#D91722" stroke="#D91722"/>
<path fill-rule="evenodd" clip-rule="evenodd" d="M63.5755 50.709L70.4764 45.3524L71.2485 36.5694C76.6201 37.3496 80.5926 35.8387 83.12 32.1297C86.4598 27.2285 85.0924 21.4708 82.7822 18.7623C79.9832 15.4807 77.8599 13.4539 74.8196 10.7997C72.1916 8.50538 67.4844 5.78085 65.0233 5.1535C66.7123 8.09724 67.0501 10.0758 67.2431 13.5504C71.9884 16.7246 74.3721 18.8875 78.1494 23.395C80.8705 26.851 75.5621 33.028 71.7311 29.8133C69.4745 27.9197 68.4614 26.4767 66.5675 24.0706L63.5755 50.709Z" fill="#1A2344" stroke="#1A2344"/>
<path fill-rule="evenodd" clip-rule="evenodd" d="M55.598 61.5478L64.2654 62.6398L71.0218 56.9752C74.2685 61.3251 78.1458 63.0658 82.5556 62.2303C88.3829 61.1262 91.4873 56.088 91.769 52.5392C92.1102 48.2396 92.0419 45.305 91.769 41.2784C91.533 37.7978 90.131 32.5428 88.8343 30.3589C87.9471 33.6347 86.7869 35.2727 84.4665 37.8661C85.5774 43.466 85.7335 46.6809 85.2172 52.5392C84.6976 56.907 76.5762 57.5212 76.1404 52.5392C75.8837 49.6046 76.1877 47.8678 76.5499 44.8273L55.598 61.5478Z" fill="#1A2344" stroke="#1A2344"/>
<path fill-rule="evenodd" clip-rule="evenodd" d="M42.2919 63.575L47.6486 70.4759L56.4315 71.248C55.6514 76.6196 57.1623 80.5921 60.8713 83.1195C65.7725 86.4593 71.5302 85.092 74.2387 82.7817C77.5203 79.9827 79.5471 77.8594 82.2013 74.8191C84.4956 72.1911 87.2201 67.4839 87.8475 65.0228C84.9037 66.7118 82.9252 67.0496 79.4506 67.2426C76.2764 71.9879 74.1134 74.3716 69.606 78.1489C66.15 80.87 59.973 75.5616 63.1877 71.7306C65.0812 69.474 66.5243 68.461 68.9304 66.567L42.2919 63.575Z" fill="#1A2344" stroke="#1A2344"/>
<path fill-rule="evenodd" clip-rule="evenodd" d="M31.4517 55.598L30.3598 64.2654L36.0243 71.0218C31.6744 74.2685 29.9337 78.1458 30.7692 82.5556C31.8733 88.3829 36.9115 91.4873 40.4603 91.769C44.7599 92.1102 47.6945 92.0419 51.7211 91.769C55.2017 91.533 60.4567 90.131 62.6406 88.8343C59.3648 87.9471 57.7268 86.7869 55.1334 84.4665C49.5335 85.5774 46.3186 85.7335 40.4603 85.2172C36.0925 84.6976 35.4783 76.5762 40.4603 76.1404C43.3949 75.8837 45.1317 76.1877 48.1722 76.5499L31.4517 55.598Z" fill="#1A2344" stroke="#1A2344"/>
<path fill-rule="evenodd" clip-rule="evenodd" d="M29.4245 42.291L22.5236 47.6476L21.7515 56.4306C16.3799 55.6504 12.4074 57.1613 9.88 60.8703C6.54017 65.7715 7.90755 71.5292 10.2178 74.2377C13.0168 77.5193 15.1401 79.5461 18.1804 82.2003C20.8084 84.4946 25.5156 87.2191 27.9767 87.8465C26.2877 84.9028 25.9499 82.9242 25.7569 79.4496C21.0116 76.2754 18.6279 74.1125 14.8506 69.605C12.1295 66.149 17.4379 59.972 21.2689 63.1867C23.5255 65.0803 24.5386 66.5233 26.4325 68.9294L29.4245 42.291Z" fill="#1A2344" stroke="#1A2344"/>
</svg>

