<svg width="74" height="89" viewBox="0 0 74 89" fill="none" xmlns="http://www.w3.org/2000/svg">
<path d="M42 5C42 2.23858 39.7614 -1.20706e-07 37 0C34.2386 1.20706e-07 32 2.23858 32 5L37 5L42 5ZM33.4645 87.5355C35.4171 89.4882 38.5829 89.4882 40.5355 87.5355L72.3553 55.7157C74.308 53.7631 74.308 50.5973 72.3553 48.6447C70.4027 46.692 67.2369 46.692 65.2843 48.6447L37 76.9289L8.71573 48.6447C6.76311 46.692 3.59728 46.692 1.64466 48.6447C-0.307959 50.5973 -0.307958 53.7631 1.64466 55.7157L33.4645 87.5355ZM37 5L32 5L32 84L37 84L42 84L42 5L37 5Z" fill="#FFFFF0"/>
</svg>
